<svg width="848" height="180" viewBox="0 0 848 180" fill="none" xmlns="http://www.w3.org/2000/svg">
<g clip-path="url(#clip0_1_340)">
<path d="M351 176.926C381.667 167.926 510.6 155.326 781 176.926" stroke="#57B8FF" stroke-width="4" stroke-linecap="round"/>
</g>
<path d="M122.182 66C120.598 66 119.134 65.616 117.79 64.848C116.494 64.08 115.462 63.048 114.694 61.752C113.926 60.408 113.542 58.944 113.542 57.36V53.256H119.374V57.36C119.374 58.128 119.638 58.8 120.166 59.376C120.742 59.904 121.414 60.168 122.182 60.168H156.742C157.51 60.168 158.158 59.904 158.686 59.376C159.262 58.8 159.55 58.128 159.55 57.36V14.16H165.382V57.36C165.382 58.944 164.998 60.408 164.23 61.752C163.462 63.048 162.406 64.08 161.062 64.848C159.766 65.616 158.326 66 156.742 66H122.182ZM181.818 66C180.234 66 178.77 65.616 177.426 64.848C176.13 64.032 175.074 62.976 174.258 61.68C173.49 60.336 173.106 58.872 173.106 57.288V32.952C173.106 31.368 173.49 29.928 174.258 28.632C175.074 27.288 176.13 26.232 177.426 25.464C178.77 24.648 180.234 24.24 181.818 24.24H206.874C208.506 24.24 209.97 24.648 211.266 25.464C212.61 26.232 213.666 27.288 214.434 28.632C215.25 29.928 215.658 31.368 215.658 32.952V57.288C215.658 58.872 215.25 60.336 214.434 61.68C213.666 62.976 212.61 64.032 211.266 64.848C209.97 65.616 208.506 66 206.874 66H181.818ZM181.818 60.096H206.874C207.642 60.096 208.29 59.832 208.818 59.304C209.394 58.728 209.682 58.056 209.682 57.288V32.952C209.682 32.184 209.394 31.536 208.818 31.008C208.29 30.432 207.642 30.144 206.874 30.144H181.818C181.05 30.144 180.378 30.432 179.802 31.008C179.274 31.536 179.01 32.184 179.01 32.952V57.288C179.01 58.056 179.274 58.728 179.802 59.304C180.378 59.832 181.05 60.096 181.818 60.096ZM223.029 66V24.24H228.933V66H223.029ZM223.029 16.464V10.56H228.933V16.464H223.029ZM237.095 66V24.24H270.935C272.519 24.24 273.959 24.648 275.255 25.464C276.599 26.232 277.655 27.288 278.423 28.632C279.239 29.928 279.647 31.368 279.647 32.952V66H273.743V32.952C273.743 32.184 273.455 31.536 272.879 31.008C272.351 30.432 271.703 30.144 270.935 30.144H245.879C245.111 30.144 244.439 30.432 243.863 31.008C243.287 31.536 242.999 32.184 242.999 32.952V66H237.095ZM315.485 66C313.853 66 312.365 65.616 311.021 64.848C309.725 64.032 308.693 62.976 307.925 61.68C307.157 60.336 306.773 58.872 306.773 57.288V10.56H312.677V24.24H330.749V30.144H312.677V57.288C312.677 58.056 312.941 58.728 313.469 59.304C314.045 59.832 314.717 60.096 315.485 60.096H330.749V66H315.485ZM336.728 66V10.56H342.632V24.24H370.568C372.152 24.24 373.592 24.648 374.888 25.464C376.232 26.232 377.288 27.288 378.056 28.632C378.872 29.928 379.28 31.368 379.28 32.952V66H373.376V32.952C373.376 32.184 373.088 31.536 372.512 31.008C371.984 30.432 371.336 30.144 370.568 30.144H345.512C344.744 30.144 344.072 30.432 343.496 31.008C342.92 31.536 342.632 32.184 342.632 32.952V66H336.728ZM393.318 66C391.734 66 390.27 65.616 388.926 64.848C387.63 64.032 386.574 62.976 385.758 61.68C384.99 60.336 384.606 58.872 384.606 57.288V32.952C384.606 31.368 384.99 29.928 385.758 28.632C386.574 27.288 387.63 26.232 388.926 25.464C390.27 24.648 391.734 24.24 393.318 24.24H418.374C420.006 24.24 421.47 24.648 422.766 25.464C424.11 26.232 425.166 27.288 425.934 28.632C426.75 29.928 427.158 31.368 427.158 32.952V48.072H390.51V57.288C390.51 58.056 390.774 58.728 391.302 59.304C391.878 59.832 392.55 60.096 393.318 60.096H427.158V66H393.318ZM390.51 42.168H421.182V32.952C421.182 32.184 420.894 31.536 420.318 31.008C419.79 30.432 419.142 30.144 418.374 30.144H393.318C392.55 30.144 391.878 30.432 391.302 31.008C390.774 31.536 390.51 32.184 390.51 32.952V42.168ZM462.858 66C461.274 66 459.81 65.616 458.466 64.848C457.17 64.032 456.114 62.976 455.298 61.68C454.53 60.336 454.146 58.872 454.146 57.288V10.56H460.05V57.288C460.05 58.056 460.314 58.728 460.842 59.304C461.418 59.832 462.09 60.096 462.858 60.096H469.914V66H462.858ZM483.882 66C482.298 66 480.834 65.616 479.49 64.848C478.194 64.032 477.138 62.976 476.322 61.68C475.554 60.336 475.17 58.872 475.17 57.288V42.168H511.746V32.952C511.746 32.184 511.458 31.536 510.882 31.008C510.354 30.432 509.706 30.144 508.938 30.144H475.17V24.24H508.938C510.57 24.24 512.034 24.648 513.33 25.464C514.674 26.232 515.73 27.288 516.498 28.632C517.314 29.928 517.722 31.368 517.722 32.952V66H483.882ZM483.882 60.096H511.746V48.072H481.074V57.288C481.074 58.056 481.338 58.728 481.866 59.304C482.442 59.832 483.114 60.096 483.882 60.096ZM524.81 66V32.952C524.81 31.368 525.194 29.928 525.962 28.632C526.778 27.288 527.834 26.232 529.13 25.464C530.474 24.648 531.938 24.24 533.522 24.24H556.994V30.144H533.522C532.754 30.144 532.082 30.432 531.506 31.008C530.978 31.536 530.714 32.184 530.714 32.952V66H524.81ZM568.566 82.488V76.512H594.63C595.398 76.512 596.046 76.224 596.574 75.648C597.15 75.12 597.438 74.472 597.438 73.704V66H569.574C567.99 66 566.526 65.616 565.182 64.848C563.886 64.032 562.83 62.976 562.014 61.68C561.246 60.336 560.862 58.872 560.862 57.288V32.952C560.862 31.368 561.246 29.928 562.014 28.632C562.83 27.288 563.886 26.232 565.182 25.464C566.526 24.648 567.99 24.24 569.574 24.24H594.63C596.262 24.24 597.726 24.648 599.022 25.464C600.366 26.232 601.422 27.288 602.19 28.632C602.958 29.928 603.342 31.368 603.342 32.952V73.704C603.342 75.336 602.958 76.8 602.19 78.096C601.422 79.44 600.366 80.496 599.022 81.264C597.726 82.08 596.262 82.488 594.63 82.488H568.566ZM569.574 60.096H594.63C595.398 60.096 596.046 59.832 596.574 59.304C597.15 58.728 597.438 58.056 597.438 57.288V32.952C597.438 32.184 597.15 31.536 596.574 31.008C596.046 30.432 595.398 30.144 594.63 30.144H569.574C568.806 30.144 568.134 30.432 567.558 31.008C567.03 31.536 566.766 32.184 566.766 32.952V57.288C566.766 58.056 567.03 58.728 567.558 59.304C568.134 59.832 568.806 60.096 569.574 60.096ZM618.388 66C616.804 66 615.34 65.616 613.996 64.848C612.7 64.032 611.644 62.976 610.828 61.68C610.06 60.336 609.676 58.872 609.676 57.288V32.952C609.676 31.368 610.06 29.928 610.828 28.632C611.644 27.288 612.7 26.232 613.996 25.464C615.34 24.648 616.804 24.24 618.388 24.24H643.444C645.076 24.24 646.54 24.648 647.836 25.464C649.18 26.232 650.236 27.288 651.004 28.632C651.82 29.928 652.228 31.368 652.228 32.952V48.072H615.58V57.288C615.58 58.056 615.844 58.728 616.372 59.304C616.948 59.832 617.62 60.096 618.388 60.096H652.228V66H618.388ZM615.58 42.168H646.252V32.952C646.252 32.184 645.964 31.536 645.388 31.008C644.86 30.432 644.212 30.144 643.444 30.144H618.388C617.62 30.144 616.948 30.432 616.372 31.008C615.844 31.536 615.58 32.184 615.58 32.952V42.168ZM668.023 66C666.439 66 664.975 65.616 663.631 64.848C662.335 64.032 661.279 62.976 660.463 61.68C659.695 60.336 659.311 58.872 659.311 57.288V56.712H665.215V57.288C665.215 58.056 665.479 58.728 666.007 59.304C666.583 59.832 667.255 60.096 668.023 60.096H693.079C693.847 60.096 694.495 59.832 695.023 59.304C695.599 58.728 695.887 58.056 695.887 57.288V50.88C695.887 50.112 695.599 49.464 695.023 48.936C694.495 48.36 693.847 48.072 693.079 48.072H668.023C666.439 48.072 664.975 47.688 663.631 46.92C662.335 46.104 661.279 45.048 660.463 43.752C659.695 42.408 659.311 40.944 659.311 39.36V32.952C659.311 31.368 659.695 29.928 660.463 28.632C661.279 27.288 662.335 26.232 663.631 25.464C664.975 24.648 666.439 24.24 668.023 24.24H693.079C694.711 24.24 696.175 24.648 697.471 25.464C698.815 26.232 699.871 27.288 700.639 28.632C701.455 29.928 701.863 31.368 701.863 32.952V33.528H695.887V32.952C695.887 32.184 695.599 31.536 695.023 31.008C694.495 30.432 693.847 30.144 693.079 30.144H668.023C667.255 30.144 666.583 30.432 666.007 31.008C665.479 31.536 665.215 32.184 665.215 32.952V39.36C665.215 40.128 665.479 40.8 666.007 41.376C666.583 41.904 667.255 42.168 668.023 42.168H693.079C694.711 42.168 696.175 42.576 697.471 43.392C698.815 44.16 699.871 45.216 700.639 46.56C701.455 47.856 701.863 49.296 701.863 50.88V57.288C701.863 58.872 701.455 60.336 700.639 61.68C699.871 62.976 698.815 64.032 697.471 64.848C696.175 65.616 694.711 66 693.079 66H668.023ZM717.743 66C716.111 66 714.623 65.616 713.279 64.848C711.983 64.032 710.951 62.976 710.183 61.68C709.415 60.336 709.031 58.872 709.031 57.288V10.56H714.935V24.24H733.007V30.144H714.935V57.288C714.935 58.056 715.199 58.728 715.727 59.304C716.303 59.832 716.975 60.096 717.743 60.096H733.007V66H717.743ZM67.6599 164.488V158.512H93.7239C94.4919 158.512 95.1399 158.224 95.6679 157.648C96.2439 157.12 96.5319 156.472 96.5319 155.704V148H68.6679C67.0839 148 65.6199 147.616 64.2759 146.848C62.9799 146.032 61.9239 144.976 61.1079 143.68C60.3399 142.336 59.9559 140.872 59.9559 139.288V114.952C59.9559 113.368 60.3399 111.928 61.1079 110.632C61.9239 109.288 62.9799 108.232 64.2759 107.464C65.6199 106.648 67.0839 106.24 68.6679 106.24H93.7239C95.3559 106.24 96.8199 106.648 98.1159 107.464C99.4599 108.232 100.516 109.288 101.284 110.632C102.052 111.928 102.436 113.368 102.436 114.952V155.704C102.436 157.336 102.052 158.8 101.284 160.096C100.516 161.44 99.4599 162.496 98.1159 163.264C96.8199 164.08 95.3559 164.488 93.7239 164.488H67.6599ZM68.6679 142.096H93.7239C94.4919 142.096 95.1399 141.832 95.6679 141.304C96.2439 140.728 96.5319 140.056 96.5319 139.288V114.952C96.5319 114.184 96.2439 113.536 95.6679 113.008C95.1399 112.432 94.4919 112.144 93.7239 112.144H68.6679C67.8999 112.144 67.2279 112.432 66.6519 113.008C66.1239 113.536 65.8599 114.184 65.8599 114.952V139.288C65.8599 140.056 66.1239 140.728 66.6519 141.304C67.2279 141.832 67.8999 142.096 68.6679 142.096ZM117.554 148C115.97 148 114.506 147.616 113.162 146.848C111.866 146.032 110.81 144.976 109.994 143.68C109.226 142.336 108.842 140.872 108.842 139.288V124.168H145.418V114.952C145.418 114.184 145.13 113.536 144.554 113.008C144.026 112.432 143.378 112.144 142.61 112.144H108.842V106.24H142.61C144.242 106.24 145.706 106.648 147.002 107.464C148.346 108.232 149.402 109.288 150.17 110.632C150.986 111.928 151.394 113.368 151.394 114.952V148H117.554ZM117.554 142.096H145.418V130.072H114.746V139.288C114.746 140.056 115.01 140.728 115.538 141.304C116.114 141.832 116.786 142.096 117.554 142.096ZM157.572 148V106.24H212.724C214.356 106.24 215.82 106.648 217.116 107.464C218.46 108.232 219.516 109.288 220.284 110.632C221.052 111.928 221.436 113.368 221.436 114.952V148H215.604V114.952C215.604 114.184 215.316 113.536 214.74 113.008C214.164 112.432 213.492 112.144 212.724 112.144H195.372C194.604 112.144 193.932 112.432 193.356 113.008C192.828 113.536 192.564 114.184 192.564 114.952V148H186.588V114.952C186.588 114.184 186.3 113.536 185.724 113.008C185.196 112.432 184.548 112.144 183.78 112.144H166.356C165.588 112.144 164.916 112.432 164.34 113.008C163.812 113.536 163.548 114.184 163.548 114.952V148H157.572ZM227.81 148V106.24H233.714V148H227.81ZM227.81 98.464V92.56H233.714V98.464H227.81ZM241.876 148V106.24H275.716C277.3 106.24 278.74 106.648 280.036 107.464C281.38 108.232 282.436 109.288 283.204 110.632C284.02 111.928 284.428 113.368 284.428 114.952V148H278.524V114.952C278.524 114.184 278.236 113.536 277.66 113.008C277.132 112.432 276.484 112.144 275.716 112.144H250.66C249.892 112.144 249.22 112.432 248.644 113.008C248.068 113.536 247.78 114.184 247.78 114.952V148H241.876ZM298.777 164.488V158.512H324.841C325.609 158.512 326.257 158.224 326.785 157.648C327.361 157.12 327.649 156.472 327.649 155.704V148H299.785C298.201 148 296.737 147.616 295.393 146.848C294.097 146.032 293.041 144.976 292.225 143.68C291.457 142.336 291.073 140.872 291.073 139.288V114.952C291.073 113.368 291.457 111.928 292.225 110.632C293.041 109.288 294.097 108.232 295.393 107.464C296.737 106.648 298.201 106.24 299.785 106.24H324.841C326.473 106.24 327.937 106.648 329.233 107.464C330.577 108.232 331.633 109.288 332.401 110.632C333.169 111.928 333.553 113.368 333.553 114.952V155.704C333.553 157.336 333.169 158.8 332.401 160.096C331.633 161.44 330.577 162.496 329.233 163.264C327.937 164.08 326.473 164.488 324.841 164.488H298.777ZM299.785 142.096H324.841C325.609 142.096 326.257 141.832 326.785 141.304C327.361 140.728 327.649 140.056 327.649 139.288V114.952C327.649 114.184 327.361 113.536 326.785 113.008C326.257 112.432 325.609 112.144 324.841 112.144H299.785C299.017 112.144 298.345 112.432 297.769 113.008C297.241 113.536 296.977 114.184 296.977 114.952V139.288C296.977 140.056 297.241 140.728 297.769 141.304C298.345 141.832 299.017 142.096 299.785 142.096ZM369.271 148C367.687 148 366.223 147.616 364.879 146.848C363.583 146.032 362.527 144.976 361.711 143.68C360.943 142.336 360.559 140.872 360.559 139.288V114.952C360.559 113.368 360.943 111.928 361.711 110.632C362.527 109.288 363.583 108.232 364.879 107.464C366.223 106.648 367.687 106.24 369.271 106.24H402.967V112.144H369.271C368.503 112.144 367.831 112.432 367.255 113.008C366.727 113.536 366.463 114.184 366.463 114.952V139.288C366.463 140.056 366.727 140.728 367.255 141.304C367.831 141.832 368.503 142.096 369.271 142.096H403.111V148H369.271ZM419.333 148C417.749 148 416.285 147.616 414.941 146.848C413.645 146.032 412.589 144.976 411.773 143.68C411.005 142.336 410.621 140.872 410.621 139.288V114.952C410.621 113.368 411.005 111.928 411.773 110.632C412.589 109.288 413.645 108.232 414.941 107.464C416.285 106.648 417.749 106.24 419.333 106.24H444.389C446.021 106.24 447.485 106.648 448.781 107.464C450.125 108.232 451.181 109.288 451.949 110.632C452.765 111.928 453.173 113.368 453.173 114.952V139.288C453.173 140.872 452.765 142.336 451.949 143.68C451.181 144.976 450.125 146.032 448.781 146.848C447.485 147.616 446.021 148 444.389 148H419.333ZM419.333 142.096H444.389C445.157 142.096 445.805 141.832 446.333 141.304C446.909 140.728 447.197 140.056 447.197 139.288V114.952C447.197 114.184 446.909 113.536 446.333 113.008C445.805 112.432 445.157 112.144 444.389 112.144H419.333C418.565 112.144 417.893 112.432 417.317 113.008C416.789 113.536 416.525 114.184 416.525 114.952V139.288C416.525 140.056 416.789 140.728 417.317 141.304C417.893 141.832 418.565 142.096 419.333 142.096ZM460.689 148V106.24H515.841C517.473 106.24 518.937 106.648 520.233 107.464C521.577 108.232 522.633 109.288 523.401 110.632C524.169 111.928 524.553 113.368 524.553 114.952V148H518.721V114.952C518.721 114.184 518.433 113.536 517.857 113.008C517.281 112.432 516.609 112.144 515.841 112.144H498.489C497.721 112.144 497.049 112.432 496.473 113.008C495.945 113.536 495.681 114.184 495.681 114.952V148H489.705V114.952C489.705 114.184 489.417 113.536 488.841 113.008C488.313 112.432 487.665 112.144 486.897 112.144H469.473C468.705 112.144 468.033 112.432 467.457 113.008C466.929 113.536 466.665 114.184 466.665 114.952V148H460.689ZM530.158 148V106.24H585.31C586.942 106.24 588.406 106.648 589.702 107.464C591.046 108.232 592.102 109.288 592.87 110.632C593.638 111.928 594.022 113.368 594.022 114.952V148H588.19V114.952C588.19 114.184 587.902 113.536 587.326 113.008C586.75 112.432 586.078 112.144 585.31 112.144H567.958C567.19 112.144 566.518 112.432 565.942 113.008C565.414 113.536 565.15 114.184 565.15 114.952V148H559.174V114.952C559.174 114.184 558.886 113.536 558.31 113.008C557.782 112.432 557.134 112.144 556.366 112.144H538.942C538.174 112.144 537.502 112.432 536.926 113.008C536.398 113.536 536.134 114.184 536.134 114.952V148H530.158ZM609.18 148C607.596 148 606.132 147.616 604.788 146.848C603.492 146.032 602.436 144.976 601.62 143.68C600.852 142.336 600.468 140.872 600.468 139.288V106.24H606.372V139.288C606.372 140.056 606.636 140.728 607.164 141.304C607.74 141.832 608.412 142.096 609.18 142.096H634.236C635.004 142.096 635.676 141.832 636.252 141.304C636.828 140.728 637.116 140.056 637.116 139.288V106.24H643.02V139.288C643.02 140.872 642.612 142.336 641.796 143.68C641.028 144.976 639.972 146.032 638.628 146.848C637.332 147.616 635.868 148 634.236 148H609.18ZM650.954 148V106.24H684.794C686.378 106.24 687.818 106.648 689.114 107.464C690.458 108.232 691.514 109.288 692.282 110.632C693.098 111.928 693.506 113.368 693.506 114.952V148H687.602V114.952C687.602 114.184 687.314 113.536 686.738 113.008C686.21 112.432 685.562 112.144 684.794 112.144H659.738C658.97 112.144 658.298 112.432 657.722 113.008C657.146 113.536 656.858 114.184 656.858 114.952V148H650.954ZM700.943 148V106.24H706.847V148H700.943ZM700.943 98.464V92.56H706.847V98.464H700.943ZM724.704 148C723.072 148 721.584 147.616 720.24 146.848C718.944 146.032 717.912 144.976 717.144 143.68C716.376 142.336 715.992 140.872 715.992 139.288V92.56H721.896V106.24H739.968V112.144H721.896V139.288C721.896 140.056 722.16 140.728 722.688 141.304C723.264 141.832 723.936 142.096 724.704 142.096H739.968V148H724.704ZM752.435 164.56V158.584H778.499C779.267 158.584 779.915 158.296 780.443 157.72C781.019 157.192 781.307 156.544 781.307 155.776V148H753.443C751.859 148 750.395 147.616 749.051 146.848C747.755 146.032 746.699 144.976 745.883 143.68C745.115 142.336 744.731 140.872 744.731 139.288V106.384H750.635V139.288C750.635 140.056 750.899 140.728 751.427 141.304C752.003 141.832 752.675 142.096 753.443 142.096H778.499C779.267 142.096 779.915 141.832 780.443 141.304C781.019 140.728 781.307 140.056 781.307 139.288V106.384H787.211V155.776C787.211 157.408 786.827 158.872 786.059 160.168C785.291 161.512 784.235 162.568 782.891 163.336C781.595 164.152 780.131 164.56 778.499 164.56H752.435Z" fill="#141820"/>
<defs>
<clipPath id="clip0_1_340">
<rect width="434" height="16" fill="white" transform="translate(373 163)"/>
</clipPath>
</defs>
</svg>
