<svg width="374" height="73" viewBox="0 0 374 73" fill="none" xmlns="http://www.w3.org/2000/svg">
<g clip-path="url(#clip0_1_65)">
<path d="M84 71C104.539 64.963 190.895 56.5112 372 71" stroke="#57B8FF" stroke-width="4" stroke-linecap="round"/>
</g>
<path d="M9.75044 45C8.69444 45 7.71844 44.744 6.82244 44.232C5.95844 43.72 5.27044 43.032 4.75844 42.168C4.24644 41.272 3.99044 40.296 3.99044 39.24V16.2C3.99044 15.144 4.24644 14.184 4.75844 13.32C5.27044 12.424 5.95844 11.72 6.82244 11.208C7.71844 10.696 8.69444 10.44 9.75044 10.44H32.7904C33.8464 10.44 34.8064 10.696 35.6704 11.208C36.5664 11.72 37.2704 12.424 37.7824 13.32C38.2944 14.184 38.5504 15.144 38.5504 16.2V39.24C38.5504 40.296 38.2944 41.272 37.7824 42.168C37.2704 43.032 36.5664 43.72 35.6704 44.232C34.8064 44.744 33.8464 45 32.7904 45H9.75044ZM9.75044 41.112H32.7904C33.3024 41.112 33.7344 40.936 34.0864 40.584C34.4704 40.2 34.6624 39.752 34.6624 39.24V16.2C34.6624 15.688 34.4704 15.256 34.0864 14.904C33.7344 14.52 33.3024 14.328 32.7904 14.328H9.75044C9.23844 14.328 8.79044 14.52 8.40644 14.904C8.05444 15.256 7.87844 15.688 7.87844 16.2V39.24C7.87844 39.752 8.05444 40.2 8.40644 40.584C8.79044 40.936 9.23844 41.112 9.75044 41.112ZM49.5004 45C48.4444 45 47.4684 44.744 46.5724 44.232C45.7084 43.688 45.0044 42.984 44.4604 42.12C43.9484 41.224 43.6924 40.248 43.6924 39.192V17.16H47.6284V39.192C47.6284 39.704 47.8044 40.152 48.1564 40.536C48.5404 40.888 48.9884 41.064 49.5004 41.064H66.2044C66.7164 41.064 67.1644 40.888 67.5484 40.536C67.9324 40.152 68.1244 39.704 68.1244 39.192V17.16H72.0604V39.192C72.0604 40.248 71.7884 41.224 71.2444 42.12C70.7324 42.984 70.0284 43.688 69.1324 44.232C68.2684 44.744 67.2924 45 66.2044 45H49.5004ZM77.0194 45V22.968C77.0194 21.912 77.2754 20.952 77.7874 20.088C78.3314 19.192 79.0354 18.488 79.8994 17.976C80.7954 17.432 81.7714 17.16 82.8274 17.16H98.4754V21.096H82.8274C82.3154 21.096 81.8674 21.288 81.4834 21.672C81.1314 22.024 80.9554 22.456 80.9554 22.968V45H77.0194ZM120.372 45C119.316 45 118.34 44.744 117.444 44.232C116.58 43.72 115.892 43.032 115.38 42.168C114.868 41.272 114.612 40.296 114.612 39.24V37.896H118.5V39.24C118.5 39.752 118.676 40.2 119.028 40.584C119.412 40.936 119.86 41.112 120.372 41.112H143.412C143.924 41.112 144.356 40.936 144.708 40.584C145.092 40.2 145.284 39.752 145.284 39.24V31.512C145.284 31 145.092 30.568 144.708 30.216C144.356 29.864 143.924 29.688 143.412 29.688H120.372C119.316 29.688 118.34 29.432 117.444 28.92C116.58 28.376 115.892 27.672 115.38 26.808C114.868 25.944 114.612 24.984 114.612 23.928V16.2C114.612 15.144 114.868 14.184 115.38 13.32C115.892 12.424 116.58 11.72 117.444 11.208C118.34 10.696 119.316 10.44 120.372 10.44H143.412C144.468 10.44 145.428 10.696 146.292 11.208C147.188 11.72 147.892 12.424 148.404 13.32C148.916 14.184 149.172 15.144 149.172 16.2V17.544H145.284V16.2C145.284 15.688 145.092 15.256 144.708 14.904C144.356 14.52 143.924 14.328 143.412 14.328H120.372C119.86 14.328 119.412 14.52 119.028 14.904C118.676 15.256 118.5 15.688 118.5 16.2V23.928C118.5 24.44 118.676 24.872 119.028 25.224C119.412 25.576 119.86 25.752 120.372 25.752H143.412C144.468 25.752 145.428 26.024 146.292 26.568C147.188 27.08 147.892 27.768 148.404 28.632C148.916 29.496 149.172 30.456 149.172 31.512V39.24C149.172 40.296 148.916 41.272 148.404 42.168C147.892 43.032 147.188 43.72 146.292 44.232C145.428 44.744 144.468 45 143.412 45H120.372ZM154.225 56.04V17.16H176.785C177.841 17.16 178.801 17.432 179.665 17.976C180.561 18.488 181.265 19.192 181.777 20.088C182.321 20.952 182.593 21.912 182.593 22.968V39.192C182.593 40.248 182.321 41.224 181.777 42.12C181.265 42.984 180.561 43.688 179.665 44.232C178.801 44.744 177.841 45 176.785 45H158.161V56.04H154.225ZM160.081 41.064H176.785C177.297 41.064 177.729 40.888 178.081 40.536C178.465 40.152 178.657 39.704 178.657 39.192V22.968C178.657 22.456 178.465 22.024 178.081 21.672C177.729 21.288 177.297 21.096 176.785 21.096H160.081C159.569 21.096 159.121 21.288 158.737 21.672C158.353 22.024 158.161 22.456 158.161 22.968V39.192C158.161 39.704 158.353 40.152 158.737 40.536C159.121 40.888 159.569 41.064 160.081 41.064ZM191.764 45C190.708 45 189.732 44.744 188.836 44.232C187.972 43.688 187.268 42.984 186.724 42.12C186.212 41.224 185.956 40.248 185.956 39.192V22.968C185.956 21.912 186.212 20.952 186.724 20.088C187.268 19.192 187.972 18.488 188.836 17.976C189.732 17.432 190.708 17.16 191.764 17.16H208.468C209.556 17.16 210.532 17.432 211.396 17.976C212.292 18.488 212.996 19.192 213.508 20.088C214.052 20.952 214.324 21.912 214.324 22.968V39.192C214.324 40.248 214.052 41.224 213.508 42.12C212.996 42.984 212.292 43.688 211.396 44.232C210.532 44.744 209.556 45 208.468 45H191.764ZM191.764 41.064H208.468C208.98 41.064 209.412 40.888 209.764 40.536C210.148 40.152 210.34 39.704 210.34 39.192V22.968C210.34 22.456 210.148 22.024 209.764 21.672C209.412 21.288 208.98 21.096 208.468 21.096H191.764C191.252 21.096 190.804 21.288 190.42 21.672C190.068 22.024 189.892 22.456 189.892 22.968V39.192C189.892 39.704 190.068 40.152 190.42 40.536C190.804 40.888 191.252 41.064 191.764 41.064ZM218.631 45V17.16H241.191C242.247 17.16 243.207 17.432 244.071 17.976C244.967 18.488 245.671 19.192 246.183 20.088C246.727 20.952 246.999 21.912 246.999 22.968V45H243.063V22.968C243.063 22.456 242.871 22.024 242.487 21.672C242.135 21.288 241.703 21.096 241.191 21.096H224.487C223.975 21.096 223.527 21.288 223.143 21.672C222.759 22.024 222.567 22.456 222.567 22.968V45H218.631ZM257.573 45C256.517 45 255.541 44.744 254.645 44.232C253.781 43.688 253.077 42.984 252.533 42.12C252.021 41.224 251.765 40.248 251.765 39.192V38.808H255.701V39.192C255.701 39.704 255.877 40.152 256.229 40.536C256.613 40.888 257.061 41.064 257.573 41.064H274.277C274.789 41.064 275.221 40.888 275.573 40.536C275.957 40.152 276.149 39.704 276.149 39.192V34.92C276.149 34.408 275.957 33.976 275.573 33.624C275.221 33.24 274.789 33.048 274.277 33.048H257.573C256.517 33.048 255.541 32.792 254.645 32.28C253.781 31.736 253.077 31.032 252.533 30.168C252.021 29.272 251.765 28.296 251.765 27.24V22.968C251.765 21.912 252.021 20.952 252.533 20.088C253.077 19.192 253.781 18.488 254.645 17.976C255.541 17.432 256.517 17.16 257.573 17.16H274.277C275.365 17.16 276.341 17.432 277.205 17.976C278.101 18.488 278.805 19.192 279.317 20.088C279.861 20.952 280.133 21.912 280.133 22.968V23.352H276.149V22.968C276.149 22.456 275.957 22.024 275.573 21.672C275.221 21.288 274.789 21.096 274.277 21.096H257.573C257.061 21.096 256.613 21.288 256.229 21.672C255.877 22.024 255.701 22.456 255.701 22.968V27.24C255.701 27.752 255.877 28.2 256.229 28.584C256.613 28.936 257.061 29.112 257.573 29.112H274.277C275.365 29.112 276.341 29.384 277.205 29.928C278.101 30.44 278.805 31.144 279.317 32.04C279.861 32.904 280.133 33.864 280.133 34.92V39.192C280.133 40.248 279.861 41.224 279.317 42.12C278.805 42.984 278.101 43.688 277.205 44.232C276.341 44.744 275.365 45 274.277 45H257.573ZM290.623 45C289.567 45 288.591 44.744 287.695 44.232C286.831 43.688 286.127 42.984 285.583 42.12C285.071 41.224 284.815 40.248 284.815 39.192V22.968C284.815 21.912 285.071 20.952 285.583 20.088C286.127 19.192 286.831 18.488 287.695 17.976C288.591 17.432 289.567 17.16 290.623 17.16H307.327C308.415 17.16 309.391 17.432 310.255 17.976C311.151 18.488 311.855 19.192 312.367 20.088C312.911 20.952 313.183 21.912 313.183 22.968V39.192C313.183 40.248 312.911 41.224 312.367 42.12C311.855 42.984 311.151 43.688 310.255 44.232C309.391 44.744 308.415 45 307.327 45H290.623ZM290.623 41.064H307.327C307.839 41.064 308.271 40.888 308.623 40.536C309.007 40.152 309.199 39.704 309.199 39.192V22.968C309.199 22.456 309.007 22.024 308.623 21.672C308.271 21.288 307.839 21.096 307.327 21.096H290.623C290.111 21.096 289.663 21.288 289.279 21.672C288.927 22.024 288.751 22.456 288.751 22.968V39.192C288.751 39.704 288.927 40.152 289.279 40.536C289.663 40.888 290.111 41.064 290.623 41.064ZM317.629 45V22.968C317.629 21.912 317.885 20.952 318.397 20.088C318.941 19.192 319.645 18.488 320.509 17.976C321.405 17.432 322.381 17.16 323.437 17.16H339.085V21.096H323.437C322.925 21.096 322.477 21.288 322.093 21.672C321.741 22.024 321.565 22.456 321.565 22.968V45H317.629ZM347.807 45C346.751 45 345.775 44.744 344.879 44.232C344.015 43.688 343.311 42.984 342.767 42.12C342.255 41.224 341.999 40.248 341.999 39.192V38.808H345.935V39.192C345.935 39.704 346.111 40.152 346.463 40.536C346.847 40.888 347.295 41.064 347.807 41.064H364.511C365.023 41.064 365.455 40.888 365.807 40.536C366.191 40.152 366.383 39.704 366.383 39.192V34.92C366.383 34.408 366.191 33.976 365.807 33.624C365.455 33.24 365.023 33.048 364.511 33.048H347.807C346.751 33.048 345.775 32.792 344.879 32.28C344.015 31.736 343.311 31.032 342.767 30.168C342.255 29.272 341.999 28.296 341.999 27.24V22.968C341.999 21.912 342.255 20.952 342.767 20.088C343.311 19.192 344.015 18.488 344.879 17.976C345.775 17.432 346.751 17.16 347.807 17.16H364.511C365.599 17.16 366.575 17.432 367.439 17.976C368.335 18.488 369.039 19.192 369.551 20.088C370.095 20.952 370.367 21.912 370.367 22.968V23.352H366.383V22.968C366.383 22.456 366.191 22.024 365.807 21.672C365.455 21.288 365.023 21.096 364.511 21.096H347.807C347.295 21.096 346.847 21.288 346.463 21.672C346.111 22.024 345.935 22.456 345.935 22.968V27.24C345.935 27.752 346.111 28.2 346.463 28.584C346.847 28.936 347.295 29.112 347.807 29.112H364.511C365.599 29.112 366.575 29.384 367.439 29.928C368.335 30.44 369.039 31.144 369.551 32.04C370.095 32.904 370.367 33.864 370.367 34.92V39.192C370.367 40.248 370.095 41.224 369.551 42.12C369.039 42.984 368.335 43.688 367.439 44.232C366.575 44.744 365.599 45 364.511 45H347.807Z" fill="#222730"/>
<defs>
<clipPath id="clip0_1_65">
<rect width="292" height="12" fill="white" transform="translate(82 61)"/>
</clipPath>
</defs>
</svg>
